# xmcd
#
# Track frame offsets:
#	150
#	16582
#	28434
#	46297
#	75184
#	93048
#	107623
#	124149
#	142567
#	157518
#	170918
#	190394
#	209448
#	227492
#	241502
#	262426
#	275011
#	291133
#	305413
#	319009
#
# Disc length: 4443 seconds
#
# Revision: 6
# Processed by: cddbd v1.5.2PL0 Copyright (c) Steve Scherf et al.
# Submitted via: EasyCDDAExtractor 12.1.0.1
#
DISCID=03115914
DTITLE=Various Artist - Mega Italia
DYEAR=2003
DGENRE=Pop
TTITLE0=Claude Barzotti - Io No Ti Scrivo Piu' 
TTITLE1=Richard Antony - Il Moi Mondo 
TTITLE2=Domenico Modugno - Piange... Il Telefono
TTITLE3=Piano D'Angio - Non Ti Ricordi Di Me
TTITLE4=Sandro Giacobbe - Signora Mia
TTITLE5=Flavio - Come Vorrei 
TTITLE6=Christian - Amore
TTITLE7=Luca Sepe - Un Po Di Te
TTITLE8=Carlotta - Sette Lavatrici
TTITLE9=Flavia Fortunato - Aspettami Ogni Sera
TTITLE10=Gigliola Cinquetti - La Prima Donna Sulla Luna
TTITLE11=Vasco Rossi - Canzone
TTITLE12=Toto Cutugno - Sara
TTITLE13=Gianni Mazza - Tu Non Mi Lasciare Mai
TTITLE14=Irene Fargo - Qualcuno Come Me
TTITLE15=Giorgo Gaber - Parlami D'amore Mariu
TTITLE16=Ivan Graziani - Agnese
TTITLE17=Lighea - Rivoglio La Mia Vita
TTITLE18=Mina - Si Lo So
TTITLE19=Salvatore Adamo - La Notte
EXTD=
EXTT0=
EXTT1=
EXTT2=
EXTT3=
EXTT4=
EXTT5=
EXTT6=
EXTT7=
EXTT8=
EXTT9=
EXTT10=
EXTT11=
EXTT12=
EXTT13=
EXTT14=
EXTT15=
EXTT16=
EXTT17=
EXTT18=
EXTT19=
PLAYORDER=
